ffmpeg started on 2016-12-12 at 03:44:30
Report written to "Output/theora/results/ffmpeg/crowd_run_2160p503500k.log"
Command line:
Tools/ffmpeg/ffmpeg -benchmark -y -i Input/y4m/crowd_run_2160p50.y4m -c:v libtheora -b:v 3500k -an Output/theora/encoded/crowd_run_2160p503500k.mkv
ffmpeg version N-82227-gdb23fde Copyright (c) 2000-2016 the FFmpeg developers
  built with gcc 5.4.0 (Ubuntu 5.4.0-6ubuntu1~16.04.2) 20160609
  configuration: --prefix=/home/jaroslav/ffmpeg_build --pkg-config-flags=--static --extra-cflags=-I/home/jaroslav/ffmpeg_build/include --extra-ldflags=-L/home/jaroslav/ffmpeg_build/lib --bindir=/home/jaroslav/bin --enable-gpl --enable-libass --enable-libfdk-aac --enable-libfreetype --enable-libmp3lame --enable-libopus --enable-libtheora --enable-libvorbis --enable-libvpx --enable-libx264 --enable-libx265 --enable-nvenc --enable-libmfx --enable-libxvid --enable-libgsm --enable-libopencore-amrnb --enable-version3 --enable-nonfree
  libavutil      55. 35.100 / 55. 35.100
  libavcodec     57. 66.101 / 57. 66.101
  libavformat    57. 57.100 / 57. 57.100
  libavdevice    57.  2.100 / 57.  2.100
  libavfilter     6. 66.100 /  6. 66.100
  libswscale      4.  3.100 /  4.  3.100
  libswresample   2.  4.100 /  2.  4.100
  libpostproc    54.  2.100 / 54.  2.100
Input #0, yuv4mpegpipe, from 'Input/y4m/crowd_run_2160p50.y4m':
  Duration: 00:00:10.00, start: 0.000000, bitrate: 4976642 kb/s
    Stream #0:0: Video: rawvideo (I420 / 0x30323449), yuv420p(progressive), 3840x2160, SAR 1:1 DAR 16:9, 50 fps, 50 tbr, 50 tbn, 50 tbc
Output #0, matroska, to 'Output/theora/encoded/crowd_run_2160p503500k.mkv':
  Metadata:
    encoder         : Lavf57.57.100
    Stream #0:0: Video: theora (libtheora) (theo / 0x6F656874), yuv420p, 3840x2160 [SAR 1:1 DAR 16:9], q=2-31, 3500 kb/s, 50 fps, 1k tbn, 50 tbc
    Metadata:
      encoder         : Lavc57.66.101 libtheora
Stream mapping:
  Stream #0:0 -> #0:0 (rawvideo (native) -> theora (libtheora))
Press [q] to stop, [?] for help
frame=    3 fps=0.0 q=-0.0 size=       4kB time=00:00:00.04 bitrate= 779.5kbits/s speed=0.0502x    frame=    5 fps=3.3 q=-0.0 size=       4kB time=00:00:00.08 bitrate= 394.6kbits/s speed=0.0541x    frame=    7 fps=3.2 q=-0.0 size=       4kB time=00:00:00.12 bitrate= 264.1kbits/s speed=0.0555x    frame=    9 fps=3.1 q=-0.0 size=       4kB time=00:00:00.16 bitrate= 198.5kbits/s speed=0.056x    frame=   11 fps=3.1 q=-0.0 size=       4kB time=00:00:00.20 bitrate= 159.0kbits/s speed=0.0563x    frame=   13 fps=3.0 q=-0.0 size=     499kB time=00:00:00.24 bitrate=16975.2kbits/s speed=0.0565x    frame=   15 fps=3.1 q=-0.0 size=     499kB time=00:00:00.28 bitrate=14558.8kbits/s speed=0.0588x    frame=   16 fps=1.8 q=-0.0 size=     499kB time=00:00:00.30 bitrate=13591.5kbits/s speed=0.0341x    frame=   17 fps=1.7 q=-0.0 size=     499kB time=00:00:00.32 bitrate=12744.6kbits/s speed=0.0316x    frame=   19 fps=1.8 q=-0.0 size=     499kB time=00:00:00.36 bitrate=11332.5kbits/s speed=0.0333x    frame=   21 fps=1.8 q=-0.0 size=     499kB time=00:00:00.40 bitrate=10202.1kbits/s speed=0.0348x    frame=   23 fps=1.9 q=-0.0 size=     499kB time=00:00:00.44 bitrate=9276.7kbits/s speed=0.0361x    frame=   25 fps=1.9 q=-0.0 size=     627kB time=00:00:00.48 bitrate=10677.4kbits/s speed=0.0372x    frame=   27 fps=2.0 q=-0.0 size=     627kB time=00:00:00.52 bitrate=9857.6kbits/s speed=0.0387x    frame=   29 fps=2.1 q=-0.0 size=     627kB time=00:00:00.56 bitrate=9154.8kbits/s speed=0.0397x    frame=   31 fps=2.1 q=-0.0 size=     627kB time=00:00:00.60 bitrate=8545.5kbits/s speed=0.0405x    frame=   33 fps=2.1 q=-0.0 size=     627kB time=00:00:00.64 bitrate=8012.2kbits/s speed=0.0413x    frame=   35 fps=2.2 q=-0.0 size=     627kB time=00:00:00.68 bitrate=7541.6kbits/s speed=0.042x    frame=   37 fps=2.2 q=-0.0 size=     755kB time=00:00:00.72 bitrate=8583.3kbits/s speed=0.0425x    frame=   39 fps=2.2 q=-0.0 size=     755kB time=00:00:00.76 bitrate=8132.1kbits/s speed=0.0436x    frame=   41 fps=2.3 q=-0.0 size=     755kB time=00:00:00.80 bitrate=7726.0kbits/s speed=0.0442x    frame=   43 fps=2.3 q=-0.0 size=     755kB time=00:00:00.84 bitrate=7358.6kbits/s speed=0.0446x    frame=   45 fps=2.3 q=-0.0 size=     755kB time=00:00:00.88 bitrate=7024.5kbits/s speed=0.0451x    frame=   47 fps=2.3 q=-0.0 size=     755kB time=00:00:00.92 bitrate=6719.4kbits/s speed=0.0455x    frame=   49 fps=2.3 q=-0.0 size=     881kB time=00:00:00.96 bitrate=7511.0kbits/s speed=0.0459x    frame=   51 fps=2.4 q=-0.0 size=     881kB time=00:00:01.00 bitrate=7210.8kbits/s speed=0.0467x    frame=   53 fps=2.4 q=-0.0 size=     881kB time=00:00:01.04 bitrate=6933.8kbits/s speed=0.047x    frame=   55 fps=2.4 q=-0.0 size=     881kB time=00:00:01.08 bitrate=6677.2kbits/s speed=0.0474x    frame=   57 fps=2.4 q=-0.0 size=     881kB time=00:00:01.12 bitrate=6438.9kbits/s speed=0.0476x    frame=   58 fps=2.4 q=-0.0 size=     881kB time=00:00:01.14 bitrate=6326.1kbits/s speed=0.0472x    frame=   60 fps=2.4 q=-0.0 size=     881kB time=00:00:01.18 bitrate=6111.8kbits/s speed=0.0475x    frame=   62 fps=2.4 q=-0.0 size=    1008kB time=00:00:01.22 bitrate=6760.8kbits/s speed=0.048x    frame=   64 fps=2.5 q=-0.0 size=    1008kB time=00:00:01.26 bitrate=6546.4kbits/s speed=0.0483x    frame=   66 fps=2.5 q=-0.0 size=    1008kB time=00:00:01.30 bitrate=6345.1kbits/s speed=0.0486x    frame=   68 fps=2.5 q=-0.0 size=    1008kB time=00:00:01.34 bitrate=6155.8kbits/s speed=0.0488x    frame=   70 fps=2.5 q=-0.0 size=    1008kB time=00:00:01.38 bitrate=5977.5kbits/s speed=0.049x    frame=   72 fps=2.5 q=-0.0 size=    1008kB time=00:00:01.42 bitrate=5809.3kbits/s speed=0.0492x    frame=   74 fps=2.5 q=-0.0 size=    1132kB time=00:00:01.46 bitrate=6349.0kbits/s speed=0.0496x    frame=   76 fps=2.5 q=-0.0 size=    1132kB time=00:00:01.50 bitrate=6179.8kbits/s speed=0.0499x    frame=   78 fps=2.5 q=-0.0 size=    1132kB time=00:00:01.54 bitrate=6019.4kbits/s speed=0.0501x    frame=   80 fps=2.5 q=-0.0 size=    1132kB time=00:00:01.58 bitrate=5867.1kbits/s speed=0.0502x    frame=   82 fps=2.5 q=-0.0 size=    1132kB time=00:00:01.62 bitrate=5722.4kbits/s speed=0.0504x    frame=   84 fps=2.6 q=-0.0 size=    1132kB time=00:00:01.66 bitrate=5584.6kbits/s speed=0.0505x    frame=   86 fps=2.6 q=-0.0 size=    1256kB time=00:00:01.70 bitrate=6051.1kbits/s speed=0.0509x    frame=   88 fps=2.6 q=-0.0 size=    1256kB time=00:00:01.74 bitrate=5912.1kbits/s speed=0.0511x    frame=   90 fps=2.6 q=-0.0 size=    1256kB time=00:00:01.78 bitrate=5779.3kbits/s speed=0.0512x    frame=   92 fps=2.6 q=-0.0 size=    1256kB time=00:00:01.82 bitrate=5652.4kbits/s speed=0.0513x    frame=   94 fps=2.6 q=-0.0 size=    1256kB time=00:00:01.86 bitrate=5530.9kbits/s speed=0.0515x    frame=   96 fps=2.6 q=-0.0 size=    1256kB time=00:00:01.90 bitrate=5414.5kbits/s speed=0.0516x    frame=   98 fps=2.6 q=-0.0 size=    1380kB time=00:00:01.94 bitrate=5822.3kbits/s speed=0.0519x    frame=  100 fps=2.6 q=-0.0 size=    1380kB time=00:00:01.98 bitrate=5704.8kbits/s speed=0.052x    frame=  102 fps=2.6 q=-0.0 size=    1380kB time=00:00:02.02 bitrate=5591.8kbits/s speed=0.0521x    frame=  104 fps=2.6 q=-0.0 size=    1380kB time=00:00:02.06 bitrate=5483.3kbits/s speed=0.0522x    frame=  105 fps=2.6 q=-0.0 size=    1380kB time=00:00:02.08 bitrate=5430.6kbits/s speed=0.0519x    frame=  107 fps=2.6 q=-0.0 size=    1380kB time=00:00:02.12 bitrate=5328.2kbits/s speed=0.052x    frame=  109 fps=2.6 q=-0.0 size=    1506kB time=00:00:02.16 bitrate=5708.1kbits/s speed=0.0521x    frame=  111 fps=2.6 q=-0.0 size=    1506kB time=00:00:02.20 bitrate=5604.3kbits/s speed=0.0524x    frame=  113 fps=2.6 q=-0.0 size=    1506kB time=00:00:02.24 bitrate=5504.3kbits/s speed=0.0525x    frame=  115 fps=2.7 q=-0.0 size=    1506kB time=00:00:02.28 bitrate=5407.8kbits/s speed=0.0526x    frame=  117 fps=2.7 q=-0.0 size=    1506kB time=00:00:02.32 bitrate=5314.6kbits/s speed=0.0527x    frame=  119 fps=2.7 q=-0.0 size=    1506kB time=00:00:02.36 bitrate=5224.5kbits/s speed=0.0527x    frame=  121 fps=2.7 q=-0.0 size=    1630kB time=00:00:02.40 bitrate=5560.7kbits/s speed=0.0528x    frame=  123 fps=2.7 q=-0.0 size=    1630kB time=00:00:02.44 bitrate=5469.6kbits/s speed=0.0531x    frame=  125 fps=2.7 q=-0.0 size=    1630kB time=00:00:02.48 bitrate=5381.4kbits/s speed=0.0532x    frame=  127 fps=2.7 q=-0.0 size=    1630kB time=00:00:02.52 bitrate=5296.0kbits/s speed=0.0533x    frame=  129 fps=2.7 q=-0.0 size=    1630kB time=00:00:02.56 bitrate=5213.3kbits/s speed=0.0533x    frame=  131 fps=2.7 q=-0.0 size=    1630kB time=00:00:02.60 bitrate=5133.1kbits/s speed=0.0534x    frame=  133 fps=2.7 q=-0.0 size=    1755kB time=00:00:02.64 bitrate=5442.4kbits/s speed=0.0534x    frame=  135 fps=2.7 q=-0.0 size=    1755kB time=00:00:02.68 bitrate=5361.2kbits/s speed=0.0537x    frame=  137 fps=2.7 q=-0.0 size=    1755kB time=00:00:02.72 bitrate=5282.4kbits/s speed=0.0538x    frame=  139 fps=2.7 q=-0.0 size=    1755kB time=00:00:02.76 bitrate=5205.9kbits/s speed=0.0538x    frame=  141 fps=2.7 q=-0.0 size=    1755kB time=00:00:02.80 bitrate=5131.5kbits/s speed=0.0539x    frame=  143 fps=2.7 q=-0.0 size=    1755kB time=00:00:02.84 bitrate=5059.3kbits/s speed=0.0539x    frame=  145 fps=2.7 q=-0.0 size=    1878kB time=00:00:02.88 bitrate=5339.8kbits/s speed=0.054x    frame=  147 fps=2.7 q=-0.0 size=    1878kB time=00:00:02.92 bitrate=5266.7kbits/s speed=0.0542x    frame=  149 fps=2.7 q=-0.0 size=    1878kB time=00:00:02.96 bitrate=5195.6kbits/s speed=0.0542x    frame=  151 fps=2.7 q=-0.0 size=    1878kB time=00:00:03.00 bitrate=5126.3kbits/s speed=0.0543x    frame=  153 fps=2.7 q=-0.0 size=    1878kB time=00:00:03.04 bitrate=5058.9kbits/s speed=0.0543x    frame=  155 fps=2.7 q=-0.0 size=    1878kB time=00:00:03.08 bitrate=4993.2kbits/s speed=0.0544x    frame=  157 fps=2.7 q=-0.0 size=    2002kB time=00:00:03.12 bitrate=5255.9kbits/s speed=0.0544x    frame=  159 fps=2.7 q=-0.0 size=    2002kB time=00:00:03.16 bitrate=5189.4kbits/s speed=0.0546x    frame=  161 fps=2.7 q=-0.0 size=    2002kB time=00:00:03.20 bitrate=5124.5kbits/s speed=0.0546x    frame=  163 fps=2.7 q=-0.0 size=    2002kB time=00:00:03.24 bitrate=5061.3kbits/s speed=0.0547x    frame=  165 fps=2.7 q=-0.0 size=    2002kB time=00:00:03.28 bitrate=4999.6kbits/s speed=0.0547x    frame=  167 fps=2.8 q=-0.0 size=    2002kB time=00:00:03.32 bitrate=4939.4kbits/s speed=0.0547x    frame=  169 fps=2.8 q=-0.0 size=    2128kB time=00:00:03.36 bitrate=5187.2kbits/s speed=0.0547x    frame=  171 fps=2.8 q=-0.0 size=    2128kB time=00:00:03.40 bitrate=5126.2kbits/s speed=0.0549x    frame=  173 fps=2.8 q=-0.0 size=    2128kB time=00:00:03.44 bitrate=5066.6kbits/s speed=0.055x    frame=  175 fps=2.8 q=-0.0 size=    2128kB time=00:00:03.48 bitrate=5008.4kbits/s speed=0.055x    frame=  177 fps=2.8 q=-0.0 size=    2128kB time=00:00:03.52 bitrate=4951.5kbits/s speed=0.055x    frame=  179 fps=2.8 q=-0.0 size=    2128kB time=00:00:03.56 bitrate=4895.9kbits/s speed=0.055x    frame=  181 fps=2.8 q=-0.0 size=    2252kB time=00:00:03.60 bitrate=5123.8kbits/s speed=0.055x    frame=  183 fps=2.8 q=-0.0 size=    2252kB time=00:00:03.64 bitrate=5067.5kbits/s speed=0.0552x    frame=  185 fps=2.8 q=-0.0 size=    2252kB time=00:00:03.68 bitrate=5012.4kbits/s speed=0.0552x    frame=  187 fps=2.8 q=-0.0 size=    2252kB time=00:00:03.72 bitrate=4958.5kbits/s speed=0.0553x    frame=  189 fps=2.8 q=-0.0 size=    2252kB time=00:00:03.76 bitrate=4905.8kbits/s speed=0.0553x    frame=  191 fps=2.8 q=-0.0 size=    2252kB time=00:00:03.80 bitrate=4854.2kbits/s speed=0.0553x    frame=  193 fps=2.8 q=-0.0 size=    2378kB time=00:00:03.84 bitrate=5070.9kbits/s speed=0.0553x    frame=  195 fps=2.8 q=-0.0 size=    2378kB time=00:00:03.88 bitrate=5018.6kbits/s speed=0.0555x    frame=  197 fps=2.8 q=-0.0 size=    2378kB time=00:00:03.92 bitrate=4967.4kbits/s speed=0.0555x    frame=  199 fps=2.8 q=-0.0 size=    2378kB time=00:00:03.96 bitrate=4917.3kbits/s speed=0.0554x    frame=  201 fps=2.8 q=-0.0 size=    2378kB time=00:00:04.00 bitrate=4868.1kbits/s speed=0.0554x    frame=  203 fps=2.8 q=-0.0 size=    2378kB time=00:00:04.04 bitrate=4819.9kbits/s speed=0.0554x    frame=  205 fps=2.8 q=-0.0 size=    2504kB time=00:00:04.08 bitrate=5026.6kbits/s speed=0.0555x    frame=  207 fps=2.8 q=-0.0 size=    2504kB time=00:00:04.12 bitrate=4977.8kbits/s speed=0.0556x    frame=  209 fps=2.8 q=-0.0 size=    2504kB time=00:00:04.16 bitrate=4929.9kbits/s speed=0.0556x    frame=  211 fps=2.8 q=-0.0 size=    2504kB time=00:00:04.20 bitrate=4883.0kbits/s speed=0.0556x    frame=  213 fps=2.8 q=-0.0 size=    2504kB time=00:00:04.24 bitrate=4836.9kbits/s speed=0.0557x    frame=  215 fps=2.8 q=-0.0 size=    2504kB time=00:00:04.28 bitrate=4791.7kbits/s speed=0.0557x    frame=  217 fps=2.8 q=-0.0 size=    2631kB time=00:00:04.32 bitrate=4988.3kbits/s speed=0.0557x    frame=  219 fps=2.8 q=-0.0 size=    2631kB time=00:00:04.36 bitrate=4942.5kbits/s speed=0.0558x    frame=  221 fps=2.8 q=-0.0 size=    2631kB time=00:00:04.40 bitrate=4897.6kbits/s speed=0.0558x    frame=  223 fps=2.8 q=-0.0 size=    2631kB time=00:00:04.44 bitrate=4853.5kbits/s speed=0.0559x    frame=  225 fps=2.8 q=-0.0 size=    2631kB time=00:00:04.48 bitrate=4810.1kbits/s speed=0.0559x    frame=  227 fps=2.8 q=-0.0 size=    2631kB time=00:00:04.52 bitrate=4767.6kbits/s speed=0.0559x    frame=  229 fps=2.8 q=-0.0 size=    2758kB time=00:00:04.56 bitrate=4954.0kbits/s speed=0.0559x    frame=  231 fps=2.8 q=-0.0 size=    2758kB time=00:00:04.60 bitrate=4911.0kbits/s speed=0.056x    frame=  233 fps=2.8 q=-0.0 size=    2758kB time=00:00:04.64 bitrate=4868.6kbits/s speed=0.056x    frame=  235 fps=2.8 q=-0.0 size=    2758kB time=00:00:04.68 bitrate=4827.0kbits/s speed=0.056x    frame=  237 fps=2.8 q=-0.0 size=    2758kB time=00:00:04.72 bitrate=4786.1kbits/s speed=0.056x    frame=  239 fps=2.8 q=-0.0 size=    2758kB time=00:00:04.76 bitrate=4745.9kbits/s speed=0.056x    frame=  241 fps=2.8 q=-0.0 size=    2886kB time=00:00:04.80 bitrate=4925.0kbits/s speed=0.056x    frame=  243 fps=2.8 q=-0.0 size=    2886kB time=00:00:04.84 bitrate=4884.3kbits/s speed=0.0562x    frame=  245 fps=2.8 q=-0.0 size=    2886kB time=00:00:04.88 bitrate=4844.3kbits/s speed=0.0562x    frame=  247 fps=2.8 q=-0.0 size=    2886kB time=00:00:04.92 bitrate=4804.9kbits/s speed=0.0562x    frame=  249 fps=2.8 q=-0.0 size=    2886kB time=00:00:04.96 bitrate=4766.2kbits/s speed=0.0562x    frame=  251 fps=2.8 q=-0.0 size=    2886kB time=00:00:05.00 bitrate=4728.1kbits/s speed=0.0562x    frame=  253 fps=2.8 q=-0.0 size=    3014kB time=00:00:05.04 bitrate=4897.8kbits/s speed=0.0562x    frame=  255 fps=2.8 q=-0.0 size=    3014kB time=00:00:05.08 bitrate=4859.3kbits/s speed=0.0563x    frame=  257 fps=2.8 q=-0.0 size=    3014kB time=00:00:05.12 bitrate=4821.3kbits/s speed=0.0564x    frame=  259 fps=2.8 q=-0.0 size=    3014kB time=00:00:05.16 bitrate=4783.9kbits/s speed=0.0564x    frame=  261 fps=2.8 q=-0.0 size=    3014kB time=00:00:05.20 bitrate=4747.1kbits/s speed=0.0564x    frame=  263 fps=2.8 q=-0.0 size=    3014kB time=00:00:05.24 bitrate=4710.9kbits/s speed=0.0564x    frame=  265 fps=2.8 q=-0.0 size=    3141kB time=00:00:05.28 bitrate=4872.8kbits/s speed=0.0564x    frame=  267 fps=2.8 q=-0.0 size=    3141kB time=00:00:05.32 bitrate=4836.2kbits/s speed=0.0565x    frame=  269 fps=2.8 q=-0.0 size=    3141kB time=00:00:05.36 bitrate=4800.1kbits/s speed=0.0565x    frame=  271 fps=2.8 q=-0.0 size=    3141kB time=00:00:05.40 bitrate=4764.5kbits/s speed=0.0565x    frame=  273 fps=2.8 q=-0.0 size=    3141kB time=00:00:05.44 bitrate=4729.5kbits/s speed=0.0565x    frame=  275 fps=2.8 q=-0.0 size=    3141kB time=00:00:05.48 bitrate=4695.0kbits/s speed=0.0565x    frame=  277 fps=2.8 q=-0.0 size=    3269kB time=00:00:05.52 bitrate=4849.9kbits/s speed=0.0565x    frame=  279 fps=2.8 q=-0.0 size=    3269kB time=00:00:05.56 bitrate=4815.0kbits/s speed=0.0566x    frame=  281 fps=2.8 q=-0.0 size=    3269kB time=00:00:05.60 bitrate=4780.6kbits/s speed=0.0566x    frame=  283 fps=2.8 q=-0.0 size=    3269kB time=00:00:05.64 bitrate=4746.7kbits/s speed=0.0566x    frame=  285 fps=2.8 q=-0.0 size=    3269kB time=00:00:05.68 bitrate=4713.3kbits/s speed=0.0566x    frame=  287 fps=2.8 q=-0.0 size=    3269kB time=00:00:05.72 bitrate=4680.3kbits/s speed=0.0566x    frame=  289 fps=2.8 q=-0.0 size=    3397kB time=00:00:05.76 bitrate=4829.9kbits/s speed=0.0566x    frame=  291 fps=2.8 q=-0.0 size=    3397kB time=00:00:05.80 bitrate=4796.5kbits/s speed=0.0567x    frame=  293 fps=2.8 q=-0.0 size=    3397kB time=00:00:05.84 bitrate=4763.7kbits/s speed=0.0567x    frame=  295 fps=2.8 q=-0.0 size=    3397kB time=00:00:05.88 bitrate=4731.3kbits/s speed=0.0567x    frame=  297 fps=2.8 q=-0.0 size=    3397kB time=00:00:05.92 bitrate=4699.3kbits/s speed=0.0567x    frame=  299 fps=2.8 q=-0.0 size=    3397kB time=00:00:05.96 bitrate=4667.8kbits/s speed=0.0567x    frame=  301 fps=2.8 q=-0.0 size=    3524kB time=00:00:06.00 bitrate=4811.0kbits/s speed=0.0567x    frame=  303 fps=2.9 q=-0.0 size=    3524kB time=00:00:06.04 bitrate=4779.2kbits/s speed=0.0568x    frame=  305 fps=2.9 q=-0.0 size=    3524kB time=00:00:06.08 bitrate=4747.7kbits/s speed=0.0568x    frame=  307 fps=2.8 q=-0.0 size=    3524kB time=00:00:06.12 bitrate=4716.7kbits/s speed=0.0568x    frame=  309 fps=2.8 q=-0.0 size=    3524kB time=00:00:06.16 bitrate=4686.1kbits/s speed=0.0568x    frame=  311 fps=2.8 q=-0.0 size=    3524kB time=00:00:06.20 bitrate=4655.9kbits/s speed=0.0568x    frame=  313 fps=2.8 q=-0.0 size=    3650kB time=00:00:06.24 bitrate=4791.2kbits/s speed=0.0568x    frame=  315 fps=2.9 q=-0.0 size=    3650kB time=00:00:06.28 bitrate=4760.6kbits/s speed=0.0569x    frame=  317 fps=2.9 q=-0.0 size=    3650kB time=00:00:06.32 bitrate=4730.5kbits/s speed=0.0569x    frame=  319 fps=2.9 q=-0.0 size=    3650kB time=00:00:06.36 bitrate=4700.8kbits/s speed=0.0569x    frame=  321 fps=2.9 q=-0.0 size=    3650kB time=00:00:06.40 bitrate=4671.4kbits/s speed=0.0569x    frame=  323 fps=2.9 q=-0.0 size=    3650kB time=00:00:06.44 bitrate=4642.4kbits/s speed=0.0569x    frame=  324 fps=2.8 q=-0.0 size=    3650kB time=00:00:06.46 bitrate=4628.0kbits/s speed=0.0567x    frame=  326 fps=2.8 q=-0.0 size=    3773kB time=00:00:06.50 bitrate=4754.9kbits/s speed=0.0568x    frame=  328 fps=2.8 q=-0.0 size=    3773kB time=00:00:06.54 bitrate=4725.8kbits/s speed=0.0568x    frame=  330 fps=2.8 q=-0.0 size=    3773kB time=00:00:06.58 bitrate=4697.1kbits/s speed=0.0568x    frame=  332 fps=2.8 q=-0.0 size=    3773kB time=00:00:06.62 bitrate=4668.7kbits/s speed=0.0568x    frame=  334 fps=2.8 q=-0.0 size=    3773kB time=00:00:06.66 bitrate=4640.7kbits/s speed=0.0568x    frame=  336 fps=2.8 q=-0.0 size=    3773kB time=00:00:06.70 bitrate=4613.0kbits/s speed=0.0568x    frame=  338 fps=2.9 q=-0.0 size=    3899kB time=00:00:06.74 bitrate=4738.7kbits/s speed=0.0569x    frame=  340 fps=2.9 q=-0.0 size=    3899kB time=00:00:06.78 bitrate=4710.7kbits/s speed=0.0569x    frame=  342 fps=2.9 q=-0.0 size=    3899kB time=00:00:06.82 bitrate=4683.1kbits/s speed=0.0569x    frame=  344 fps=2.9 q=-0.0 size=    3899kB time=00:00:06.86 bitrate=4655.8kbits/s speed=0.0569x    frame=  346 fps=2.9 q=-0.0 size=    3899kB time=00:00:06.90 bitrate=4628.8kbits/s speed=0.0569x    frame=  348 fps=2.9 q=-0.0 size=    3899kB time=00:00:06.94 bitrate=4602.1kbits/s speed=0.0569x    frame=  350 fps=2.9 q=-0.0 size=    4026kB time=00:00:06.98 bitrate=4724.0kbits/s speed=0.0569x    frame=  352 fps=2.9 q=-0.0 size=    4026kB time=00:00:07.02 bitrate=4697.1kbits/s speed=0.057x    frame=  354 fps=2.9 q=-0.0 size=    4026kB time=00:00:07.06 bitrate=4670.5kbits/s speed=0.057x    frame=  356 fps=2.9 q=-0.0 size=    4026kB time=00:00:07.10 bitrate=4644.2kbits/s speed=0.057x    frame=  358 fps=2.9 q=-0.0 size=    4026kB time=00:00:07.14 bitrate=4618.2kbits/s speed=0.057x    frame=  360 fps=2.9 q=-0.0 size=    4026kB time=00:00:07.18 bitrate=4592.4kbits/s speed=0.057x    frame=  362 fps=2.9 q=-0.0 size=    4152kB time=00:00:07.22 bitrate=4710.1kbits/s speed=0.057x    frame=  364 fps=2.9 q=-0.0 size=    4152kB time=00:00:07.26 bitrate=4684.2kbits/s speed=0.057x    frame=  366 fps=2.9 q=-0.0 size=    4152kB time=00:00:07.30 bitrate=4658.5kbits/s speed=0.057x    frame=  368 fps=2.9 q=-0.0 size=    4152kB time=00:00:07.34 bitrate=4633.1kbits/s speed=0.057x    frame=  370 fps=2.9 q=-0.0 size=    4152kB time=00:00:07.38 bitrate=4608.0kbits/s speed=0.057x    frame=  372 fps=2.9 q=-0.0 size=    4152kB time=00:00:07.42 bitrate=4583.2kbits/s speed=0.057x    frame=  374 fps=2.9 q=-0.0 size=    4279kB time=00:00:07.46 bitrate=4697.9kbits/s speed=0.0571x    frame=  376 fps=2.9 q=-0.0 size=    4279kB time=00:00:07.50 bitrate=4672.8kbits/s speed=0.0571x    frame=  378 fps=2.9 q=-0.0 size=    4279kB time=00:00:07.54 bitrate=4648.0kbits/s speed=0.0571x    frame=  380 fps=2.9 q=-0.0 size=    4279kB time=00:00:07.58 bitrate=4623.5kbits/s speed=0.0571x    frame=  382 fps=2.9 q=-0.0 size=    4279kB time=00:00:07.62 bitrate=4599.2kbits/s speed=0.0571x    frame=  384 fps=2.9 q=-0.0 size=    4279kB time=00:00:07.66 bitrate=4575.2kbits/s speed=0.0571x    frame=  386 fps=2.9 q=-0.0 size=    4404kB time=00:00:07.70 bitrate=4684.9kbits/s speed=0.0571x    frame=  388 fps=2.9 q=-0.0 size=    4404kB time=00:00:07.74 bitrate=4660.6kbits/s speed=0.0572x    frame=  390 fps=2.9 q=-0.0 size=    4404kB time=00:00:07.78 bitrate=4636.7kbits/s speed=0.0572x    frame=  392 fps=2.9 q=-0.0 size=    4404kB time=00:00:07.82 bitrate=4613.0kbits/s speed=0.0571x    frame=  394 fps=2.9 q=-0.0 size=    4404kB time=00:00:07.86 bitrate=4589.5kbits/s speed=0.0571x    frame=  396 fps=2.9 q=-0.0 size=    4404kB time=00:00:07.90 bitrate=4566.3kbits/s speed=0.0571x    frame=  398 fps=2.9 q=-0.0 size=    4528kB time=00:00:07.94 bitrate=4671.3kbits/s speed=0.0572x    frame=  400 fps=2.9 q=-0.0 size=    4528kB time=00:00:07.98 bitrate=4647.9kbits/s speed=0.0572x    frame=  402 fps=2.9 q=-0.0 size=    4528kB time=00:00:08.02 bitrate=4624.7kbits/s speed=0.057x    frame=  404 fps=2.9 q=-0.0 size=    4528kB time=00:00:08.06 bitrate=4601.7kbits/s speed=0.057x    frame=  406 fps=2.9 q=-0.0 size=    4528kB time=00:00:08.10 bitrate=4579.0kbits/s speed=0.057x    frame=  408 fps=2.9 q=-0.0 size=    4528kB time=00:00:08.14 bitrate=4556.5kbits/s speed=0.057x    frame=  410 fps=2.9 q=-0.0 size=    4651kB time=00:00:08.18 bitrate=4657.0kbits/s speed=0.0571x    frame=  412 fps=2.9 q=-0.0 size=    4651kB time=00:00:08.22 bitrate=4634.4kbits/s speed=0.0571x    frame=  414 fps=2.9 q=-0.0 size=    4651kB time=00:00:08.26 bitrate=4611.9kbits/s speed=0.057x    frame=  416 fps=2.9 q=-0.0 size=    4651kB time=00:00:08.30 bitrate=4589.7kbits/s speed=0.057x    frame=  418 fps=2.9 q=-0.0 size=    4651kB time=00:00:08.34 bitrate=4567.7kbits/s speed=0.057x    frame=  420 fps=2.9 q=-0.0 size=    4651kB time=00:00:08.38 bitrate=4545.9kbits/s speed=0.057x    frame=  422 fps=2.9 q=-0.0 size=    4769kB time=00:00:08.42 bitrate=4639.1kbits/s speed=0.0571x    frame=  424 fps=2.9 q=-0.0 size=    4769kB time=00:00:08.46 bitrate=4617.2kbits/s speed=0.0571x    frame=  426 fps=2.9 q=-0.0 size=    4769kB time=00:00:08.50 bitrate=4595.5kbits/s speed=0.0571x    frame=  428 fps=2.9 q=-0.0 size=    4769kB time=00:00:08.54 bitrate=4574.0kbits/s speed=0.057x    frame=  430 fps=2.9 q=-0.0 size=    4769kB time=00:00:08.58 bitrate=4552.6kbits/s speed=0.057x    frame=  432 fps=2.9 q=-0.0 size=    4769kB time=00:00:08.62 bitrate=4531.5kbits/s speed=0.057x    frame=  434 fps=2.9 q=-0.0 size=    4886kB time=00:00:08.66 bitrate=4621.7kbits/s speed=0.0571x    frame=  436 fps=2.9 q=-0.0 size=    4886kB time=00:00:08.70 bitrate=4600.4kbits/s speed=0.0571x    frame=  438 fps=2.9 q=-0.0 size=    4886kB time=00:00:08.74 bitrate=4579.4kbits/s speed=0.0571x    frame=  440 fps=2.9 q=-0.0 size=    4886kB time=00:00:08.78 bitrate=4558.5kbits/s speed=0.0571x    frame=  442 fps=2.9 q=-0.0 size=    4886kB time=00:00:08.82 bitrate=4537.9kbits/s speed=0.0571x    frame=  444 fps=2.9 q=-0.0 size=    4886kB time=00:00:08.86 bitrate=4517.4kbits/s speed=0.057x    frame=  446 fps=2.9 q=-0.0 size=    5007kB time=00:00:08.90 bitrate=4608.1kbits/s speed=0.0571x    frame=  448 fps=2.9 q=-0.0 size=    5007kB time=00:00:08.94 bitrate=4587.4kbits/s speed=0.0571x    frame=  450 fps=2.9 q=-0.0 size=    5007kB time=00:00:08.98 bitrate=4567.0kbits/s speed=0.0571x    frame=  452 fps=2.9 q=-0.0 size=    5007kB time=00:00:09.02 bitrate=4546.8kbits/s speed=0.0571x    frame=  454 fps=2.9 q=-0.0 size=    5007kB time=00:00:09.06 bitrate=4526.7kbits/s speed=0.0571x    frame=  456 fps=2.9 q=-0.0 size=    5007kB time=00:00:09.10 bitrate=4506.8kbits/s speed=0.0571x    frame=  458 fps=2.9 q=-0.0 size=    5131kB time=00:00:09.14 bitrate=4598.2kbits/s speed=0.0571x    frame=  460 fps=2.9 q=-0.0 size=    5131kB time=00:00:09.18 bitrate=4578.1kbits/s speed=0.057x    frame=  462 fps=2.9 q=-0.0 size=    5131kB time=00:00:09.22 bitrate=4558.3kbits/s speed=0.057x    frame=  464 fps=2.9 q=-0.0 size=    5131kB time=00:00:09.26 bitrate=4538.6kbits/s speed=0.057x    frame=  466 fps=2.9 q=-0.0 size=    5131kB time=00:00:09.30 bitrate=4519.1kbits/s speed=0.057x    frame=  468 fps=2.9 q=-0.0 size=    5131kB time=00:00:09.34 bitrate=4499.7kbits/s speed=0.057x    frame=  470 fps=2.9 q=-0.0 size=    5253kB time=00:00:09.38 bitrate=4587.0kbits/s speed=0.057x    frame=  472 fps=2.9 q=-0.0 size=    5253kB time=00:00:09.42 bitrate=4567.5kbits/s speed=0.057x    frame=  474 fps=2.9 q=-0.0 size=    5253kB time=00:00:09.46 bitrate=4548.2kbits/s speed=0.057x    frame=  476 fps=2.9 q=-0.0 size=    5253kB time=00:00:09.50 bitrate=4529.0kbits/s speed=0.057x    frame=  478 fps=2.9 q=-0.0 size=    5253kB time=00:00:09.54 bitrate=4510.0kbits/s speed=0.057x    frame=  480 fps=2.9 q=-0.0 size=    5253kB time=00:00:09.58 bitrate=4491.2kbits/s speed=0.057x    frame=  482 fps=2.9 q=-0.0 size=    5377kB time=00:00:09.62 bitrate=4578.5kbits/s speed=0.057x    frame=  484 fps=2.9 q=-0.0 size=    5377kB time=00:00:09.66 bitrate=4559.5kbits/s speed=0.0571x    frame=  485 fps=2.9 q=-0.0 size=    5377kB time=00:00:09.68 bitrate=4550.1kbits/s speed=0.057x    frame=  487 fps=2.9 q=-0.0 size=    5377kB time=00:00:09.72 bitrate=4531.4kbits/s speed=0.057x    frame=  489 fps=2.9 q=-0.0 size=    5377kB time=00:00:09.76 bitrate=4512.8kbits/s speed=0.057x    frame=  491 fps=2.9 q=-0.0 size=    5377kB time=00:00:09.80 bitrate=4494.4kbits/s speed=0.057x    frame=  493 fps=2.9 q=-0.0 size=    5501kB time=00:00:09.84 bitrate=4579.4kbits/s speed=0.057x    frame=  495 fps=2.9 q=-0.0 size=    5501kB time=00:00:09.88 bitrate=4560.9kbits/s speed=0.057x    frame=  497 fps=2.9 q=-0.0 size=    5501kB time=00:00:09.92 bitrate=4542.5kbits/s speed=0.057x    frame=  499 fps=2.9 q=-0.0 size=    5501kB time=00:00:09.96 bitrate=4524.2kbits/s speed=0.057x    frame=  500 fps=2.9 q=-0.0 size=    5501kB time=00:00:09.98 bitrate=4515.2kbits/s speed=0.0569x    frame=  500 fps=2.9 q=-0.0 Lsize=    5627kB time=00:00:09.98 bitrate=4618.0kbits/s speed=0.0569x    
video:5618kB audio:0kB subtitle:0kB other streams:0kB global headers:3kB muxing overhead: 0.153387%
bench: utime=156.740s
bench: maxrss=196368kB
